{"title":"I.Am.Number.Four.2011.TS.XViD-PRESTiGE","uid":6212543,"size":971536855,"categoryP":"video","categoryS":"movies","magnet":"?xt=urn:btih:bb1e03725cc690c6e30db119259f1d60be251c26&amp;dn=I.Am.Number.Four.2011.TS.XViD-PRESTiGE&amp;tr=udp%3A%2F%2Ftracker.openbittorrent.com%3A80&amp;tr=udp%3A%2F%2Fopen.demonii.com%3A1337&amp;tr=udp%3A%2F%2Ftracker.coppersurfer.tk%3A6969&amp;tr=udp%3A%2F%2Fexodus.desync.com%3A6969","seeders":0,"leechers":1,"uploader":"razvanripper","files":-1,"time":1299037456,"description":" &lt;a href=&quot;http://www.imdb.com/title/tt1464540/&quot; rel=&quot;nofollow&quot; target=&quot;_NEW&quot;&gt;http://www.imdb.com/title/tt1464540/&lt;/a&gt;\n\nJohn is an extraordinary teen, masking his true identity and passing as a typical high school student to elude a deadly enemy seeking to destroy him. Three like him have already been killed ... he is Number Four. \n\nGeneral\nComplete name: I.Am.Number.Four.2011.TS.XViD-PRESTiGE.avi\nFormat: AVI\nFormat/Info: Audio Video Interleave\nFile size: 915 MiB\nDuration: 1h 38mn\nOverall bit rate: 1 298 Kbps\nWriting library: MPlayer\n\nVideo\nID: 0\nFormat: MPEG-4 Visual\nFormat profile: Advanced Simple@L5\nFormat settings, BVOP: 2\nFormat settings, QPel: No\nFormat settings, GMC: No warppoints\nFormat settings, Matrix: Default (H.263)\nCodec ID: XVID\nCodec ID/Hint: XviD\nDuration: 1h 38mn\nBit rate: 1 029 Kbps\nWidth: 720 pixels\nHeight: 480 pixels\nDisplay aspect ratio: 3:2\nFrame rate: 25.000 fps\nStandard: NTSC\nColor space: YUV\nChroma subsampling: 4:2:0\nBit depth: 8 bits\nScan type: Progressive\nCompression mode: Lossy\nBits/(Pixel*Frame): 0.119\nStream size: 726 MiB (79%)\nWriting library: XviD 1.1.2 (UTC 2006-11-01)\n\nAudio\nID: 1\nFormat: MPEG Audio\nFormat version: Version 1\nFormat profile: Layer 3\nMode: Joint stereo\nCodec ID: 55\nCodec ID/Hint: MP3\nDuration: 1h 38mn\nBit rate mode: Constant\nBit rate: 256 Kbps\nChannel(s): 2 channels\nSampling rate: 44.1 KHz\nCompression mode: Lossy\nDelay relative to video: 40ms\nStream size: 180 MiB (20%)\nAlignment: Aligned on interleaves\nInterleave, duration: 26 ms (0.65 video frame)\nInterleave, preload duration: 809 ms\n\n","torrent":{"xt":"urn:btih:bb1e03725cc690c6e30db119259f1d60be251c26","amp;dn":"I.Am.Number.Four.2011.TS.XViD-PRESTiGE","amp;tr":["udp%3A%2F%2Ftracker.openbittorrent.com%3A80","udp%3A%2F%2Fopen.demonii.com%3A1337","udp%3A%2F%2Ftracker.coppersurfer.tk%3A6969","udp%3A%2F%2Fexodus.desync.com%3A6969"],"infoHash":"bb1e03725cc690c6e30db119259f1d60be251c26","infoHashBuffer":{"type":"Buffer","data":[187,30,3,114,92,198,144,198,227,13,177,25,37,159,29,96,190,37,28,38]},"announce":[],"urlList":[]}}